<svg width="136.000000" height="136.000000" viewBox="0 0 136 136" fill="none" xmlns="http://www.w3.org/2000/svg" xmlns:xlink="http://www.w3.org/1999/xlink">
	<desc>
			Created with Pixso.
	</desc>
	<defs>
		<clipPath id="clip10_394">
			<rect id="Icon / best support" width="136.000000" height="136.000000" fill="white" fill-opacity="0"/>
		</clipPath>
	</defs>
	<g clip-path="url(#clip10_394)">
		<path id="Vector" d="M60.59 86.17C60.04 85.54 59.32 85.09 58.53 84.87C57.73 84.65 56.89 84.67 56.1 84.93L48.42 87.45C48 87.59 47.55 87.63 47.11 87.59C46.67 87.54 46.25 87.39 45.87 87.17C45.49 86.94 45.15 86.63 44.89 86.26C44.63 85.9 44.45 85.48 44.36 85.03L42.63 76.91C42.46 76.08 42.05 75.31 41.47 74.71C40.89 74.11 40.15 73.7 39.34 73.51L38.98 73.43L11.33 115.2L33.85 113.65L40.12 136L68.37 93.38C67.93 93.38 67.49 93.29 67.09 93.11C66.68 92.92 66.32 92.65 66.03 92.31L60.59 86.17Z" fill="#A78BFA" fill-opacity="1.000000" fill-rule="nonzero"/>
		<path id="Vector" d="M60.59 86.17C60.19 85.71 59.7 85.34 59.15 85.09C58.6 84.84 58.01 84.7 57.41 84.7C56.97 84.7 56.53 84.77 56.1 84.91L48.42 87.44C48 87.58 47.55 87.62 47.11 87.57C46.67 87.53 46.25 87.38 45.87 87.16C45.48 86.93 45.15 86.62 44.89 86.25C44.63 85.88 44.45 85.46 44.35 85.02L43.5 80.99L20.72 114.55L33.85 113.65L37.5 126.68L63.09 88.99L60.59 86.17ZM75.39 86.17C75.94 85.54 76.66 85.09 77.46 84.87C78.25 84.65 79.1 84.67 79.88 84.93L87.57 87.45C87.99 87.59 88.43 87.63 88.87 87.59C89.31 87.54 89.73 87.39 90.12 87.17C90.5 86.94 90.83 86.63 91.09 86.26C91.35 85.9 91.53 85.48 91.63 85.03L93.35 76.9C93.53 76.08 93.93 75.32 94.52 74.72C95.1 74.12 95.84 73.7 96.64 73.52L97 73.44L124.66 115.2L102.14 113.65L95.87 136L67.61 93.38C68.06 93.38 68.49 93.29 68.9 93.11C69.3 92.92 69.66 92.65 69.96 92.31L75.39 86.17Z" fill="#A78BFA" fill-opacity="1.000000" fill-rule="nonzero"/>
		<path id="Vector" d="M75.39 86.17C75.94 85.54 76.66 85.09 77.46 84.87C78.25 84.65 79.1 84.67 79.88 84.93L87.57 87.45C87.99 87.59 88.43 87.63 88.87 87.59C89.31 87.54 89.73 87.39 90.12 87.17C90.5 86.94 90.83 86.63 91.09 86.26C91.35 85.9 91.53 85.48 91.63 85.03L92.48 81L115.26 114.55L102.13 113.65L98.47 126.68L72.89 88.99L75.39 86.17Z" fill="#A78BFA" fill-opacity="1.000000" fill-rule="nonzero"/>
		<path id="Vector" d="M79.16 89.77L86.54 92.19C87.6 92.54 88.72 92.65 89.82 92.53C90.93 92.41 92 92.05 92.96 91.47C93.92 90.9 94.76 90.12 95.42 89.2C96.07 88.27 96.54 87.21 96.77 86.09L98.42 78.3L99.99 77.95L97 73.44L96.64 73.52C95.83 73.7 95.1 74.12 94.52 74.72C93.93 75.32 93.53 76.08 93.35 76.91L91.63 85.03C91.54 85.48 91.35 85.9 91.09 86.26C90.83 86.63 90.5 86.94 90.12 87.17C89.74 87.4 89.31 87.54 88.87 87.59C88.43 87.64 87.99 87.59 87.57 87.45L79.88 84.93C79.1 84.67 78.26 84.65 77.46 84.87C76.67 85.09 75.95 85.54 75.39 86.17L69.96 92.31C69.72 92.62 69.43 92.87 69.09 93.04C68.75 93.21 68.37 93.3 67.99 93.3C67.61 93.3 67.24 93.21 66.9 93.04C66.56 92.87 66.26 92.62 66.03 92.31L60.6 86.17C60.19 85.71 59.7 85.34 59.15 85.09C58.61 84.84 58.01 84.71 57.41 84.7C56.97 84.7 56.53 84.77 56.11 84.91L48.42 87.44C48 87.58 47.55 87.62 47.12 87.57C46.68 87.53 46.25 87.38 45.87 87.16C45.49 86.93 45.15 86.62 44.89 86.25C44.63 85.88 44.45 85.46 44.36 85.02L42.64 76.89C42.46 76.07 42.05 75.31 41.47 74.71C40.88 74.11 40.15 73.7 39.34 73.52L38.98 73.44L36.01 77.93L37.67 78.31L39.32 86.1C39.55 87.22 40.02 88.28 40.67 89.2C41.33 90.13 42.17 90.9 43.13 91.48C44.09 92.05 45.16 92.41 46.27 92.53C47.38 92.65 48.49 92.54 49.55 92.19L56.91 89.75L62.14 95.66C63.04 96.66 64.16 97.41 65.41 97.85L67.99 93.95L70.6 97.88C71.88 97.44 73.03 96.68 73.95 95.66L79.16 89.77Z" fill="#7C3AED" fill-opacity="1.000000" fill-rule="nonzero"/>
		<path id="Vector" d="M60.59 86.17C60.19 85.71 59.7 85.34 59.15 85.09C58.6 84.84 58.01 84.71 57.41 84.7C56.97 84.7 56.53 84.77 56.1 84.91L48.42 87.44C48 87.58 47.55 87.62 47.11 87.57C46.67 87.53 46.25 87.38 45.87 87.16C45.48 86.93 45.15 86.62 44.89 86.25C44.63 85.88 44.45 85.46 44.36 85.02L43.5 80.99L20.72 114.55L33.85 113.65L37.5 126.68L63.09 88.99L60.59 86.17ZM92.48 81L91.63 85.03C91.54 85.48 91.36 85.9 91.1 86.26C90.84 86.63 90.5 86.94 90.12 87.17C89.74 87.39 89.32 87.54 88.88 87.59C88.44 87.63 87.99 87.59 87.57 87.45L79.89 84.93C79.1 84.67 78.26 84.65 77.46 84.87C76.67 85.09 75.95 85.54 75.4 86.17L72.9 88.99L98.49 126.68L102.14 113.65L115.27 114.55L92.48 81Z" fill="#8B5CF6" fill-opacity="1.000000" fill-rule="nonzero"/>
		<path id="Vector" d="M63.09 88.99L60.59 86.17C60.19 85.71 59.7 85.34 59.15 85.09C58.6 84.84 58.01 84.71 57.41 84.7C56.97 84.7 56.53 84.77 56.1 84.91L48.42 87.44C48 87.58 47.55 87.62 47.11 87.57C46.67 87.53 46.25 87.38 45.87 87.16C45.48 86.93 45.15 86.62 44.89 86.25C44.63 85.88 44.45 85.46 44.36 85.02L43.5 80.99L39.53 86.84C40.18 88.92 41.59 90.65 43.47 91.65C45.35 92.65 47.54 92.85 49.55 92.19L56.91 89.75L60.12 93.38L63.1 88.99L63.09 88.99ZM86.54 92.19C88.53 92.84 90.7 92.66 92.57 91.69C94.44 90.71 95.87 89.01 96.53 86.96L92.48 81L91.63 85.03C91.54 85.48 91.36 85.9 91.1 86.26C90.84 86.63 90.5 86.94 90.12 87.17C89.74 87.39 89.32 87.54 88.88 87.59C88.44 87.63 87.99 87.59 87.57 87.45L79.89 84.93C79.1 84.67 78.26 84.65 77.46 84.87C76.67 85.09 75.95 85.54 75.4 86.17L72.9 88.99L75.91 93.44L79.16 89.76L86.54 92.19Z" fill="#A78BFA" fill-opacity="1.000000" fill-rule="nonzero"/>
		<path id="Vector" d="M97.19 19.87L105.07 21.64C105.58 21.76 106.06 21.98 106.48 22.3C106.9 22.61 107.25 23.02 107.51 23.48C107.77 23.95 107.93 24.46 107.99 24.99C108.05 25.53 107.99 26.07 107.84 26.58L105.39 34.5C105.17 35.21 105.15 35.96 105.34 36.67C105.52 37.38 105.9 38.03 106.43 38.52L112.39 44.13C112.77 44.49 113.08 44.93 113.29 45.42C113.5 45.91 113.61 46.44 113.61 46.98C113.61 47.51 113.5 48.04 113.29 48.53C113.08 49.02 112.77 49.46 112.39 49.83L106.43 55.43C105.9 55.93 105.52 56.57 105.34 57.28C105.15 57.99 105.17 58.75 105.39 59.45L107.84 67.38C107.99 67.89 108.05 68.43 107.99 68.96C107.93 69.49 107.77 70.01 107.51 70.47C107.25 70.94 106.9 71.34 106.48 71.66C106.06 71.97 105.58 72.2 105.07 72.31L97.19 74.09C96.49 74.25 95.85 74.61 95.34 75.13C94.84 75.65 94.49 76.31 94.34 77.03L92.61 85.16C92.5 85.68 92.28 86.18 91.98 86.61C91.67 87.04 91.28 87.4 90.83 87.67C90.38 87.94 89.88 88.11 89.36 88.17C88.84 88.23 88.32 88.17 87.83 88.01L80.14 85.48C79.46 85.26 78.73 85.24 78.04 85.43C77.35 85.62 76.72 86.01 76.24 86.56L70.81 92.7C70.46 93.1 70.03 93.42 69.55 93.63C69.08 93.85 68.56 93.96 68.04 93.96C67.52 93.96 67.01 93.85 66.53 93.63C66.06 93.42 65.63 93.1 65.28 92.7L59.85 86.56C59.36 86.01 58.74 85.62 58.05 85.43C57.36 85.24 56.63 85.26 55.95 85.48L48.26 88.01C47.77 88.17 47.24 88.23 46.72 88.17C46.21 88.11 45.71 87.94 45.26 87.67C44.81 87.4 44.42 87.04 44.11 86.61C43.8 86.18 43.59 85.68 43.48 85.16L41.75 77.03C41.6 76.31 41.25 75.65 40.74 75.13C40.24 74.61 39.6 74.25 38.9 74.09L31.01 72.31C30.51 72.2 30.03 71.97 29.61 71.66C29.19 71.34 28.84 70.94 28.58 70.47C28.32 70.01 28.15 69.49 28.1 68.96C28.04 68.43 28.09 67.89 28.25 67.38L30.7 59.45C30.92 58.75 30.93 57.99 30.75 57.28C30.56 56.57 30.18 55.93 29.66 55.43L23.7 49.83C23.31 49.46 23.01 49.02 22.8 48.53C22.59 48.04 22.48 47.51 22.48 46.98C22.48 46.44 22.59 45.91 22.8 45.42C23.01 44.93 23.31 44.49 23.7 44.13L29.66 38.52C30.18 38.03 30.56 37.38 30.75 36.67C30.93 35.96 30.92 35.21 30.7 34.5L28.25 26.58C28.09 26.07 28.04 25.53 28.1 24.99C28.15 24.46 28.32 23.95 28.58 23.48C28.84 23.02 29.19 22.61 29.61 22.3C30.03 21.98 30.51 21.76 31.01 21.64L38.9 19.87C39.6 19.71 40.24 19.35 40.74 18.83C41.25 18.3 41.6 17.64 41.75 16.92L43.48 8.79C43.59 8.27 43.8 7.78 44.11 7.34C44.42 6.91 44.81 6.55 45.26 6.28C45.71 6.01 46.21 5.84 46.73 5.79C47.24 5.73 47.77 5.78 48.26 5.95L55.95 8.47C56.63 8.69 57.36 8.71 58.05 8.52C58.74 8.33 59.36 7.94 59.85 7.39L65.28 1.25C65.63 0.86 66.06 0.54 66.53 0.32C67.01 0.11 67.52 -0.01 68.04 -0.01C68.56 -0.01 69.08 0.11 69.55 0.32C70.03 0.54 70.46 0.86 70.81 1.25L76.24 7.39C76.72 7.94 77.35 8.33 78.04 8.52C78.73 8.71 79.46 8.69 80.14 8.47L87.83 5.95C88.32 5.78 88.84 5.73 89.36 5.79C89.88 5.84 90.38 6.01 90.83 6.28C91.28 6.55 91.67 6.91 91.98 7.34C92.28 7.78 92.5 8.27 92.61 8.79L94.34 16.92C94.49 17.64 94.84 18.3 95.34 18.83C95.85 19.35 96.49 19.71 97.19 19.87Z" fill="#6D28D9" fill-opacity="1.000000" fill-rule="nonzero"/>
		<path id="Vector" d="M97.57 46.99C97.57 52.63 96.04 58.16 93.16 62.96C90.29 67.76 86.17 71.64 81.28 74.17C76.39 76.7 70.92 77.78 65.47 77.29C60.01 76.79 54.8 74.75 50.41 71.38C46.02 68.01 42.63 63.45 40.61 58.21C38.58 52.97 38.01 47.25 38.96 41.69C39.91 36.13 42.33 30.96 45.96 26.74C49.6 22.52 54.29 19.42 59.53 17.8C62.29 16.94 65.16 16.5 68.04 16.51C71.92 16.51 75.77 17.3 79.35 18.83C82.93 20.36 86.19 22.61 88.93 25.44C91.68 28.27 93.85 31.63 95.33 35.33C96.81 39.03 97.58 42.99 97.57 46.99Z" fill="#A78BFA" fill-opacity="1.000000" fill-rule="nonzero"/>
		<path id="Vector" d="M97.57 46.99C97.57 52.15 96.31 57.22 93.88 61.73C91.46 66.25 87.97 70.05 83.73 72.79C80.97 73.65 78.1 74.08 75.22 74.07C68.81 74.08 62.57 71.93 57.44 67.95C52.32 63.97 48.59 58.39 46.81 52.03C45.04 45.67 45.33 38.9 47.62 32.72C49.91 26.54 54.1 21.31 59.53 17.8C62.29 16.94 65.16 16.5 68.04 16.51C71.92 16.51 75.77 17.3 79.35 18.83C82.93 20.36 86.19 22.61 88.93 25.44C91.67 28.27 93.85 31.63 95.33 35.33C96.81 39.03 97.58 42.99 97.57 46.99Z" fill="#8B5CF6" fill-opacity="1.000000" fill-rule="nonzero"/>
		<path id="Vector" d="M70.19 65.78C69.63 65.78 69.09 65.54 68.69 65.13C68.29 64.72 68.07 64.16 68.07 63.58L68.07 36.38L62.58 40.24C62.35 40.41 62.09 40.53 61.81 40.6C61.54 40.66 61.25 40.67 60.97 40.62C60.69 40.56 60.43 40.46 60.19 40.3C59.95 40.14 59.75 39.93 59.59 39.69C59.43 39.45 59.32 39.18 59.26 38.89C59.21 38.61 59.21 38.31 59.26 38.03C59.32 37.74 59.43 37.47 59.58 37.23C59.74 36.99 59.95 36.78 60.18 36.62L68.99 30.41C69.31 30.19 69.69 30.06 70.07 30.03C70.46 30.01 70.85 30.1 71.19 30.29C71.53 30.47 71.82 30.75 72.02 31.09C72.22 31.44 72.32 31.83 72.32 32.23L72.32 63.58C72.32 64.16 72.1 64.72 71.7 65.13C71.3 65.54 70.76 65.78 70.19 65.78Z" fill="#F5F3FF" fill-opacity="1.000000" fill-rule="nonzero"/>
	</g>
</svg>
