<svg width="136.000000" height="136.000000" viewBox="0 0 136 136" fill="none" xmlns="http://www.w3.org/2000/svg" xmlns:xlink="http://www.w3.org/1999/xlink">
	<desc>
			Created with Pixso.
	</desc>
	<defs>
		<clipPath id="clip1106_386">
			<rect id="Icon / Board" width="136.000000" height="136.000000" fill="white" fill-opacity="0"/>
		</clipPath>
	</defs>
	<g clip-path="url(#clip1106_386)">
		<path id="Vector" d="M67.73 18.8L67.73 19.16L39.21 19.16L39.21 18.8L41.11 11.33L65.83 11.33L67.73 18.8Z" fill="#EDE9FE" fill-opacity="1.000000" fill-rule="nonzero"/>
		<path id="Vector" d="M11.33 18.8L95.62 18.8L95.62 124.66L11.33 124.66L11.33 18.8Z" fill="#4C1D95" fill-opacity="1.000000" fill-rule="nonzero"/>
		<path id="Vector" d="M18.94 26.2L87.99 26.2L87.99 117.28L18.94 117.28L18.94 26.2Z" fill="#C4B5FD" fill-opacity="1.000000" fill-rule="nonzero"/>
		<path id="Vector" d="M87.99 26.2L87.99 111.7L39.79 111.7C38.23 111.7 36.68 111.4 35.24 110.82C33.79 110.24 32.48 109.39 31.38 108.32C30.27 107.25 29.4 105.98 28.8 104.58C28.2 103.18 27.9 101.68 27.9 100.17L27.9 26.2L87.99 26.2Z" fill="#A78BFA" fill-opacity="1.000000" fill-rule="nonzero"/>
		<path id="Vector" d="M28.36 35.13C27.8 35.13 27.27 35.35 26.87 35.73C26.48 36.11 26.25 36.63 26.25 37.17L26.25 47.62C26.25 48.16 26.48 48.68 26.87 49.06C27.27 49.44 27.8 49.66 28.36 49.66L39.14 49.66C39.7 49.66 40.24 49.44 40.63 49.06C41.03 48.68 41.25 48.16 41.25 47.62L41.25 37.35C41.25 37.06 41.19 36.77 41.07 36.5C40.96 36.23 40.79 35.99 40.58 35.78C40.36 35.57 40.11 35.41 39.83 35.3C39.55 35.19 39.25 35.13 38.95 35.13L28.36 35.13ZM28.36 64.17C27.8 64.17 27.27 64.38 26.87 64.77C26.48 65.15 26.25 65.67 26.25 66.21L26.25 76.66C26.25 77.2 26.48 77.72 26.87 78.1C27.27 78.48 27.8 78.7 28.36 78.7L39.14 78.7C39.7 78.7 40.24 78.48 40.63 78.1C41.03 77.72 41.25 77.2 41.25 76.66L41.25 66.39C41.25 65.8 41.01 65.24 40.58 64.82C40.15 64.4 39.56 64.17 38.95 64.17L28.36 64.17ZM28.36 92.79C28.08 92.79 27.81 92.84 27.56 92.94C27.3 93.04 27.07 93.19 26.87 93.38C26.68 93.57 26.52 93.8 26.41 94.05C26.31 94.29 26.25 94.56 26.25 94.83L26.25 105.29C26.25 105.83 26.48 106.35 26.87 106.73C27.27 107.11 27.8 107.33 28.36 107.33L39.14 107.33C39.7 107.33 40.24 107.11 40.63 106.73C41.03 106.35 41.25 105.83 41.25 105.29L41.25 95.01C41.25 94.72 41.19 94.43 41.07 94.16C40.96 93.89 40.79 93.64 40.58 93.44C40.36 93.23 40.11 93.07 39.83 92.96C39.55 92.84 39.25 92.79 38.95 92.79L28.36 92.79Z" fill="#6D28D9" fill-opacity="1.000000" fill-rule="nonzero"/>
		<path id="Vector" d="M79.17 44.16L64.29 44.16C63.79 44.16 63.31 43.96 62.96 43.62C62.6 43.28 62.41 42.81 62.41 42.33C62.41 41.84 62.6 41.38 62.96 41.04C63.31 40.69 63.79 40.5 64.29 40.5L79.17 40.5C79.67 40.5 80.15 40.69 80.5 41.04C80.85 41.38 81.05 41.84 81.05 42.33C81.05 42.81 80.85 43.28 80.5 43.62C80.15 43.96 79.67 44.16 79.17 44.16ZM56.68 44.16L49.03 44.16C48.53 44.16 48.05 43.96 47.7 43.62C47.34 43.28 47.14 42.81 47.14 42.33C47.14 41.84 47.34 41.38 47.7 41.04C48.05 40.69 48.53 40.5 49.03 40.5L56.68 40.5C57.18 40.5 57.66 40.69 58.01 41.04C58.36 41.38 58.56 41.84 58.56 42.33C58.56 42.81 58.36 43.28 58.01 43.62C57.66 43.96 57.18 44.16 56.68 44.16ZM79.17 72.46L71.8 72.46C71.3 72.46 70.82 72.27 70.46 71.92C70.11 71.58 69.91 71.12 69.91 70.63C69.91 70.15 70.11 69.68 70.46 69.34C70.82 69 71.3 68.8 71.8 68.8L79.17 68.8C79.67 68.8 80.15 69 80.5 69.34C80.85 69.68 81.05 70.15 81.05 70.63C81.05 71.12 80.85 71.58 80.5 71.92C80.15 72.27 79.67 72.46 79.17 72.46ZM64.12 72.46L49.02 72.46C48.52 72.46 48.04 72.27 47.69 71.92C47.34 71.58 47.14 71.12 47.14 70.63C47.14 70.15 47.34 69.68 47.69 69.34C48.04 69 48.52 68.8 49.02 68.8L64.12 68.8C64.62 68.8 65.1 69 65.45 69.34C65.8 69.68 66 70.15 66 70.63C66 71.12 65.8 71.58 65.45 71.92C65.1 72.27 64.62 72.46 64.12 72.46ZM35.04 45.59L34.97 45.59C34.72 45.58 34.48 45.53 34.25 45.42C34.02 45.32 33.82 45.18 33.65 45L31.31 42.51C31.15 42.34 31.02 42.13 30.93 41.9C30.85 41.68 30.81 41.44 30.82 41.2C30.84 40.96 30.9 40.72 31 40.51C31.11 40.29 31.25 40.09 31.44 39.93C31.62 39.77 31.83 39.65 32.07 39.56C32.3 39.48 32.55 39.45 32.79 39.46C33.04 39.47 33.28 39.53 33.51 39.63C33.73 39.73 33.93 39.87 34.1 40.05L35.15 41.17L45.02 32.2C45.38 31.87 45.87 31.69 46.37 31.71C46.87 31.72 47.34 31.93 47.68 32.28C48.03 32.63 48.21 33.11 48.19 33.59C48.18 34.07 47.96 34.53 47.6 34.86L36.34 45.1C35.99 45.42 35.52 45.59 35.04 45.59ZM35.04 74.63L34.97 74.63C34.72 74.62 34.48 74.56 34.25 74.46C34.02 74.36 33.82 74.22 33.65 74.04L31.31 71.55C31.15 71.37 31.02 71.17 30.93 70.94C30.85 70.72 30.81 70.48 30.82 70.24C30.84 70 30.9 69.76 31 69.54C31.11 69.33 31.25 69.13 31.44 68.97C31.62 68.81 31.83 68.68 32.07 68.6C32.3 68.52 32.55 68.48 32.79 68.5C33.04 68.51 33.28 68.56 33.51 68.67C33.73 68.77 33.93 68.91 34.1 69.09L35.15 70.2L45.02 61.24C45.38 60.9 45.87 60.73 46.37 60.74C46.87 60.76 47.34 60.97 47.68 61.32C48.03 61.67 48.21 62.14 48.19 62.63C48.18 63.11 47.96 63.57 47.6 63.9L36.34 74.14C35.99 74.46 35.52 74.63 35.04 74.63ZM35.04 103.25L34.97 103.25C34.72 103.24 34.48 103.18 34.25 103.08C34.02 102.98 33.82 102.83 33.65 102.65L31.31 100.17C31.13 99.99 30.99 99.78 30.9 99.55C30.81 99.33 30.76 99.08 30.77 98.84C30.78 98.59 30.84 98.35 30.94 98.13C31.05 97.91 31.2 97.71 31.39 97.54C31.57 97.38 31.79 97.25 32.03 97.17C32.27 97.09 32.52 97.05 32.77 97.07C33.03 97.08 33.27 97.15 33.5 97.25C33.73 97.36 33.93 97.52 34.09 97.7L35.14 98.82L45.01 89.85C45.38 89.54 45.86 89.37 46.35 89.4C46.84 89.42 47.3 89.63 47.63 89.97C47.97 90.32 48.15 90.78 48.14 91.25C48.13 91.73 47.94 92.18 47.59 92.51L36.33 102.75C35.98 103.07 35.52 103.25 35.04 103.25ZM79.66 101.82L64.79 101.82C64.29 101.82 63.81 101.63 63.45 101.29C63.1 100.94 62.9 100.48 62.9 99.99C62.9 99.51 63.1 99.04 63.45 98.7C63.81 98.36 64.29 98.17 64.79 98.17L79.66 98.17C80.16 98.17 80.64 98.36 80.99 98.7C81.35 99.04 81.54 99.51 81.54 99.99C81.54 100.48 81.35 100.94 80.99 101.29C80.64 101.63 80.16 101.82 79.66 101.82ZM57.16 101.82L49.52 101.82C49.02 101.82 48.54 101.63 48.19 101.29C47.83 100.94 47.64 100.48 47.64 99.99C47.64 99.51 47.83 99.04 48.19 98.7C48.54 98.36 49.02 98.17 49.52 98.17L57.16 98.17C57.66 98.17 58.14 98.36 58.5 98.7C58.85 99.04 59.05 99.51 59.05 99.99C59.05 100.48 58.85 100.94 58.5 101.29C58.14 101.63 57.66 101.82 57.16 101.82Z" fill="#EDE9FE" fill-opacity="1.000000" fill-rule="nonzero"/>
		<path id="Vector" d="M124.66 61.58C124.66 62.07 124.46 62.53 124.11 62.88C123.76 63.22 123.28 63.41 122.78 63.41C122.28 63.41 121.8 63.22 121.44 62.88C121.09 62.53 120.89 62.07 120.89 61.58L120.89 44.87C120.76 44.45 120.26 43.48 118.05 43.48L116.15 43.48L116.15 40.14C116.15 40.03 116.15 39.92 116.13 39.82L118.05 39.82C119.55 39.65 121.07 40.03 122.29 40.89C123.51 41.76 124.35 43.04 124.64 44.48L124.66 61.58ZM116.29 105.9L110.58 124.66L104.84 105.9L116.29 105.9Z" fill="#6D28D9" fill-opacity="1.000000" fill-rule="nonzero"/>
		<path id="Vector" d="M104.84 61.59L116.29 61.59L116.29 105.9L104.84 105.9L104.84 61.59Z" fill="#C4B5FD" fill-opacity="1.000000" fill-rule="nonzero"/>
		<path id="Vector" d="M116.29 40.14L116.29 61.58L104.84 61.58L104.84 40.14C104.84 38.67 105.45 37.26 106.52 36.22C107.59 35.18 109.05 34.59 110.57 34.59C112.08 34.59 113.54 35.18 114.61 36.22C115.69 37.26 116.29 38.67 116.29 40.14Z" fill="#6D28D9" fill-opacity="1.000000" fill-rule="nonzero"/>
		<path id="Vector" d="M116.29 105.9L110.58 124.66L110.58 105.9L116.29 105.9Z" fill="#7C3AED" fill-opacity="1.000000" fill-rule="nonzero"/>
		<path id="Vector" d="M110.58 61.59L116.29 61.59L116.29 105.9L110.58 105.9L110.58 61.59Z" fill="#A78BFA" fill-opacity="1.000000" fill-rule="nonzero"/>
		<path id="Vector" d="M116.29 40.14L116.29 61.59L110.58 61.59L110.58 34.6C112.04 34.6 113.44 35.14 114.49 36.11C115.55 37.08 116.19 38.41 116.26 39.82C116.28 39.92 116.29 40.03 116.29 40.14Z" fill="#7C3AED" fill-opacity="1.000000" fill-rule="nonzero"/>
	</g>
</svg>
