<svg width="136.000000" height="136.000000" viewBox="0 0 136 136" fill="none" xmlns="http://www.w3.org/2000/svg" xmlns:xlink="http://www.w3.org/1999/xlink">
	<desc>
			Created with Pixso.
	</desc>
	<defs>
		<clipPath id="clip10_248">
			<rect id="Icon / garantee" width="136.000000" height="136.000000" fill="white" fill-opacity="0"/>
		</clipPath>
	</defs>
	<g clip-path="url(#clip10_248)">
		<path id="Vector" d="M37.76 115.84C19.4 109.5 15.31 94.67 14.83 76.78C14.72 72.61 14.82 68.47 14.93 64.3C23.03 62.89 30.79 60.29 37.91 56.06C42.2 58.61 46.54 60.48 51.28 61.98C51.61 62.08 51.67 62.49 52.37 62.49C52.7 62.49 52.63 62.39 52.86 62.46C55.65 63.26 58.01 63.8 60.89 64.3C61.15 74.25 61.37 85.54 58.44 95.05C55.12 105.78 48.44 112.25 38.05 115.84L37.76 115.84ZM52.77 75.81C52.53 75.57 52.21 75.44 51.88 75.44C51.54 75.44 51.22 75.57 50.99 75.81L34.84 92.3L27.21 84.51C27.09 84.39 26.96 84.3 26.8 84.23C26.65 84.17 26.49 84.14 26.32 84.14C26.16 84.14 25.99 84.17 25.84 84.23C25.69 84.3 25.55 84.39 25.43 84.51C25.32 84.63 25.22 84.77 25.16 84.93C25.1 85.09 25.06 85.25 25.06 85.42C25.06 85.59 25.1 85.76 25.16 85.92C25.22 86.07 25.32 86.21 25.43 86.33L33.95 95.03C34.07 95.15 34.21 95.25 34.36 95.31C34.51 95.38 34.67 95.41 34.84 95.41C35.01 95.41 35.17 95.38 35.32 95.31C35.48 95.25 35.61 95.15 35.73 95.03L52.77 77.63C52.88 77.51 52.98 77.37 53.04 77.21C53.1 77.06 53.14 76.89 53.14 76.72C53.14 76.55 53.1 76.38 53.04 76.23C52.98 76.07 52.88 75.93 52.77 75.81ZM61.24 47.44L61.24 34.89C61.24 34.67 61.33 34.46 61.48 34.31C61.63 34.16 61.83 34.07 62.05 34.07L91.92 34.07L91.92 47.44L61.24 47.44ZM94.44 20.85C94.44 20.64 94.53 20.43 94.68 20.28C94.83 20.12 95.03 20.04 95.25 20.04L109.44 20.04C109.65 20.04 109.86 20.12 110.01 20.28C110.16 20.43 110.24 20.64 110.24 20.85L110.24 47.44L94.44 47.44L94.44 20.85ZM34.01 40.62C34.01 41.29 33.46 41.83 32.93 42.15C32.24 42.56 31.4 42.75 30.6 42.75L17.71 42.75C16.92 42.75 16.07 42.56 15.38 42.14C14.86 41.83 14.31 41.29 14.31 40.62L14.31 38.84C14.31 38.17 14.86 37.64 15.38 37.32C16.07 36.9 16.92 36.71 17.71 36.71L29.38 36.72C29.6 36.76 29.66 36.82 29.91 36.82L33.02 36.79C33.36 36.89 33.93 37.18 34.01 37.47L34.01 40.62Z" fill="#C4B5FD" fill-opacity="1.000000" fill-rule="evenodd"/>
		<path id="Vector" d="M53.09 75.48C53.25 75.64 53.38 75.84 53.46 76.05C53.55 76.26 53.59 76.49 53.59 76.72C53.59 76.95 53.55 77.18 53.46 77.39C53.38 77.61 53.25 77.8 53.09 77.96L36.05 95.37C35.9 95.53 35.71 95.66 35.5 95.75C35.29 95.83 35.07 95.88 34.84 95.88C34.61 95.88 34.39 95.83 34.18 95.75C33.97 95.66 33.78 95.53 33.63 95.37L25.11 86.66C24.95 86.5 24.82 86.31 24.74 86.1C24.65 85.88 24.6 85.65 24.6 85.42C24.6 85.19 24.65 84.97 24.74 84.75C24.82 84.54 24.95 84.35 25.11 84.18C25.78 83.5 26.86 83.5 27.54 84.18L34.84 91.64L50.66 75.48C51.33 74.8 52.42 74.8 53.09 75.48ZM97.42 74.47L97.42 60.43C97.42 59.46 98.19 58.68 99.14 58.68C100.09 58.68 100.85 59.46 100.85 60.43L100.85 74.47C100.85 75.44 100.09 76.22 99.14 76.22C98.19 76.22 97.42 75.43 97.42 74.47ZM83.68 74.47L83.68 60.43C83.68 59.97 83.86 59.52 84.19 59.19C84.51 58.86 84.94 58.68 85.4 58.68C85.85 58.68 86.29 58.86 86.61 59.19C86.94 59.52 87.12 59.97 87.12 60.43L87.12 74.47C87.12 74.93 86.94 75.38 86.61 75.71C86.29 76.04 85.86 76.22 85.4 76.22C85.17 76.22 84.95 76.17 84.74 76.09C84.53 76 84.35 75.87 84.19 75.71C84.03 75.54 83.9 75.35 83.81 75.14C83.73 74.93 83.68 74.7 83.68 74.47ZM69.94 74.47L69.94 60.43C69.94 60.2 69.99 59.97 70.07 59.76C70.16 59.55 70.29 59.36 70.45 59.19C70.61 59.03 70.8 58.9 71 58.81C71.21 58.72 71.44 58.68 71.66 58.68C72.12 58.68 72.55 58.86 72.88 59.19C73.2 59.52 73.38 59.97 73.38 60.43L73.38 74.47C73.38 74.93 73.2 75.38 72.87 75.71C72.55 76.04 72.12 76.22 71.66 76.22C71.21 76.22 70.77 76.04 70.45 75.71C70.13 75.38 69.94 74.93 69.94 74.47ZM105.04 103.18C105.04 105.85 102.91 108.03 100.28 108.03C97.66 108.03 95.53 105.85 95.53 103.18C95.53 100.49 97.66 98.31 100.28 98.31C102.91 98.31 105.04 100.49 105.04 103.18ZM74.77 103.18C74.77 105.85 72.64 108.03 70.02 108.03C67.39 108.03 65.26 105.85 65.26 103.18C65.26 100.49 67.39 98.31 70.02 98.31C72.64 98.31 74.77 100.49 74.77 103.18ZM37.91 115.39C48.42 111.77 54.81 105.25 58 94.91C60.86 85.67 60.71 74.63 60.44 64.7C58.31 64.33 56.19 63.86 54.1 63.29C53.64 63.17 53.19 63.04 52.74 62.91C52.62 62.94 52.49 62.96 52.37 62.96C51.91 62.96 51.47 62.76 51.14 62.43C46.33 60.9 41.81 58.92 37.91 56.61C31.34 60.5 23.28 63.32 15.37 64.7C15.11 74.63 14.96 85.67 17.81 94.91C21.01 105.25 27.4 111.77 37.91 115.39ZM119.54 50.48L50.31 50.48L53.59 59.51C56.56 60.37 59.35 61 62.37 61.46C63.2 61.59 63.82 62.3 63.84 63.15C64.02 69.93 64.22 77.3 63.5 84.42L101.19 84.42C104.68 84.42 107.65 82.49 109.12 79.25L121.06 52.92C121.18 52.66 121.24 52.37 121.22 52.08C121.2 51.79 121.11 51.51 120.96 51.27C120.81 51.02 120.6 50.82 120.35 50.68C120.1 50.55 119.82 50.47 119.54 50.48ZM61.7 34.89C61.7 34.7 61.86 34.54 62.05 34.54L91.47 34.54L91.47 46.97L61.7 46.97L61.7 34.89ZM95.25 20.5L109.44 20.5C109.63 20.5 109.78 20.66 109.78 20.85L109.78 46.97L94.9 46.97L94.9 20.85C94.9 20.66 95.06 20.5 95.25 20.5ZM33.55 37.61L33.55 40.62C33.55 41.39 32.26 42.29 30.6 42.29L17.71 42.29C16.05 42.29 14.76 41.39 14.76 40.62L14.76 38.84C14.76 38.07 16.05 37.18 17.71 37.18L29.3 37.18C29.45 37.2 29.55 37.29 29.92 37.29L32.9 37.25C33.26 37.34 33.49 37.51 33.55 37.61ZM101.19 87.93C106.05 87.93 110.18 85.24 112.23 80.72L124.18 54.39C125.76 50.92 123.28 46.97 119.54 46.97L113.22 46.97L113.22 20.85C113.22 18.73 111.52 17 109.44 17L95.25 17C93.16 17 91.47 18.73 91.47 20.85L91.47 31.03L62.05 31.03C59.96 31.03 58.27 32.76 58.27 34.89L58.27 46.97L49.05 46.97L46.25 39.24C45.02 35.85 41.95 33.67 38.42 33.67C38.38 33.67 38.34 33.67 38.31 33.67L33.21 33.74C32.92 33.69 32.64 33.67 32.35 33.67L17.71 33.67C14.13 33.67 11.33 35.94 11.33 38.84L11.33 40.62C11.33 43.52 14.13 45.79 17.71 45.79L30.6 45.79C34.18 45.79 36.99 43.52 36.99 40.62L36.97 37.2L38.42 37.18C40.53 37.18 42.29 38.43 43.03 40.46L49.43 58.15C45.55 56.74 41.94 55.02 38.8 53.07C38.53 52.9 38.22 52.81 37.91 52.81C37.59 52.81 37.28 52.9 37.01 53.07C30.26 57.26 21.72 60.19 13.44 61.46C13.04 61.52 12.68 61.72 12.41 62.03C12.14 62.34 11.99 62.73 11.98 63.15C11.69 73.72 11.37 85.71 14.54 95.96C18.1 107.49 25.57 114.99 37.38 118.91C37.72 119.02 38.09 119.02 38.44 118.91C49.44 115.26 56.68 108.49 60.5 98.25C61.25 98.35 62.56 98.31 63.35 98.31C59.49 103.83 63.36 111.54 70.02 111.54C76.69 111.54 80.53 103.81 76.68 98.31L93.62 98.31C89.77 103.81 93.61 111.54 100.28 111.54C106.94 111.54 110.8 103.83 106.95 98.31L113.5 98.31C114.45 98.31 115.22 97.53 115.22 96.56C115.22 95.59 114.45 94.81 113.5 94.81L61.62 94.81C62.24 92.58 62.71 90.28 63.06 87.93L101.19 87.93Z" fill="#8B5CF6" fill-opacity="1.000000" fill-rule="evenodd"/>
	</g>
</svg>
