<svg width="136.000000" height="136.000000" viewBox="0 0 136 136" fill="none" xmlns="http://www.w3.org/2000/svg" xmlns:xlink="http://www.w3.org/1999/xlink">
	<desc>
			Created with Pixso.
	</desc>
	<defs>
		<clipPath id="clip10_369">
			<rect id="Icon / Package" width="136.000000" height="136.000000" fill="white" fill-opacity="0"/>
		</clipPath>
	</defs>
	<g clip-path="url(#clip10_369)">
		<path id="Vector" d="M64.64 11.33L11.33 38.28L11.33 100.19L72.06 124.66L72.08 124.66L72.08 124.65L124.66 93.69L124.66 31.79L64.64 11.33Z" fill="#DDD6FE" fill-opacity="1.000000" fill-rule="nonzero"/>
		<path id="Vector" d="M124.66 31.79L64.64 11.33L11.33 38.28L11.33 100.19L72.06 124.66L72.08 124.66L72.08 62.73L72.07 62.73L124.66 31.79Z" fill="#C4B5FD" fill-opacity="1.000000" fill-rule="nonzero"/>
		<path id="Vector" d="M72.08 62.73L72.08 124.66L72.06 124.66L11.33 100.19L11.33 38.28L18.47 41.16L72.08 62.73Z" fill="#8B5CF6" fill-opacity="1.000000" fill-rule="nonzero"/>
		<path id="Vector" d="M72.08 62.73L72.08 116.16L32.13 100.05C28.1 98.42 24.64 95.62 22.21 92.02C19.78 88.41 18.48 84.16 18.48 79.82L18.48 41.16L72.08 62.73Z" fill="#A78BFA" fill-opacity="1.000000" fill-rule="nonzero"/>
		<path id="Vector" d="M99.12 23.08L98.05 23.66L46.17 52.3L46.07 72.21L37.85 69.14L32.49 67.12L32.49 46.81L86.57 18.81L99.12 23.08Z" fill="#5B21B6" fill-opacity="1.000000" fill-rule="nonzero"/>
		<path id="Vector" d="M98.11 23.66L46.23 52.3L46.13 72.21L37.91 69.14L37.91 49.59L92.02 21.59L98.11 23.66Z" fill="#6D28D9" fill-opacity="1.000000" fill-rule="nonzero"/>
	</g>
</svg>
