<svg width="136.000000" height="136.000000" viewBox="0 0 136 136" fill="none" xmlns="http://www.w3.org/2000/svg" xmlns:xlink="http://www.w3.org/1999/xlink">
	<desc>
			Created with Pixso.
	</desc>
	<defs>
		<clipPath id="clip10_380">
			<rect id="Icon / Delivery" width="136.000000" height="136.000000" fill="white" fill-opacity="0"/>
		</clipPath>
	</defs>
	<g clip-path="url(#clip10_380)">
		<path id="Vector" d="M134.59 74.26L122.9 54.04C122.61 53.54 122.19 53.13 121.68 52.84C121.17 52.55 120.58 52.4 119.99 52.4L101.92 52.4L101.92 35.72C101.92 35.26 101.73 34.82 101.39 34.5C101.06 34.18 100.61 34 100.13 34L27.92 34C27.44 34 26.99 34.18 26.66 34.5C26.32 34.82 26.13 35.26 26.13 35.72L26.13 90.16C26.13 90.82 26.41 91.46 26.89 91.92C27.38 92.39 28.04 92.66 28.72 92.66L134.44 92.66C134.64 92.66 134.85 92.62 135.04 92.54C135.23 92.47 135.4 92.36 135.54 92.22C135.69 92.08 135.8 91.91 135.88 91.73C135.96 91.55 136 91.35 136 91.16L136 79.53C136 77.69 135.51 75.87 134.59 74.26Z" fill="#8B5CF6" fill-opacity="1.000000" fill-rule="nonzero"/>
		<path id="Vector" d="M136 79.53L136 87.31L113.44 87.31C112.05 87.31 110.71 86.77 109.73 85.82C108.75 84.87 108.19 83.58 108.19 82.24L108.19 52.4L119.99 52.4C120.59 52.4 121.17 52.55 121.68 52.84C122.19 53.13 122.61 53.54 122.9 54.04L134.59 74.26C135.51 75.87 136 77.69 136 79.53Z" fill="#A78BFA" fill-opacity="1.000000" fill-rule="nonzero"/>
		<path id="Vector" d="M128.54 92.66C128.55 94.58 127.94 96.44 126.79 98C125.61 99.63 123.93 100.85 121.98 101.49C120.03 102.14 117.92 102.16 115.96 101.57C114 100.97 112.28 99.79 111.07 98.19C109.85 96.58 109.2 94.65 109.2 92.66C109.2 90.19 110.22 87.82 112.03 86.07C113.85 84.32 116.31 83.34 118.87 83.34C121.43 83.34 123.89 84.32 125.71 86.07C127.52 87.82 128.54 90.19 128.54 92.66Z" fill="#A5B4FC" fill-opacity="1.000000" fill-rule="nonzero"/>
		<path id="Vector" d="M101.92 35.72L101.92 87.58L43.03 87.58C41.64 87.58 40.26 87.32 38.98 86.81C37.69 86.29 36.52 85.54 35.54 84.59C34.56 83.64 33.77 82.51 33.24 81.27C32.71 80.03 32.44 78.71 32.44 77.36L32.44 34L100.13 34C100.61 34 101.06 34.18 101.39 34.5C101.73 34.82 101.92 35.26 101.92 35.72Z" fill="#A78BFA" fill-opacity="1.000000" fill-rule="nonzero"/>
		<path id="Vector" d="M128.54 92.66C128.55 94.58 127.94 96.44 126.79 98C125.94 98.24 125.05 98.37 124.17 98.36C121.6 98.36 119.14 97.37 117.33 95.62C115.52 93.87 114.5 91.5 114.5 89.03C114.49 87.1 115.11 85.21 116.28 83.64C117.72 83.26 119.23 83.21 120.69 83.48C122.16 83.75 123.54 84.35 124.73 85.23C125.91 86.1 126.87 87.22 127.54 88.51C128.2 89.8 128.54 91.23 128.54 92.66Z" fill="#C4B5FD" fill-opacity="1.000000" fill-rule="nonzero"/>
		<path id="Vector" d="M66.17 92.66C66.17 94.4 65.66 96.1 64.71 97.58C63.76 99.06 62.4 100.25 60.79 101.02C59.18 101.79 57.37 102.11 55.58 101.94C53.79 101.78 52.08 101.14 50.64 100.08C49.21 99.03 48.11 97.61 47.47 95.99C46.82 94.37 46.66 92.61 47 90.9C47.34 89.19 48.17 87.61 49.39 86.34C50.61 85.06 52.17 84.13 53.91 83.67C54.75 83.42 55.62 83.3 56.5 83.31C57.77 83.31 59.03 83.55 60.2 84.02C61.38 84.49 62.45 85.18 63.34 86.05C64.24 86.92 64.95 87.95 65.44 89.09C65.92 90.22 66.17 91.44 66.17 92.66Z" fill="#A5B4FC" fill-opacity="1.000000" fill-rule="nonzero"/>
		<path id="Vector" d="M66.17 92.66C66.17 94.57 65.55 96.44 64.41 98C63.56 98.24 62.68 98.37 61.79 98.36C59.23 98.36 56.77 97.37 54.96 95.62C53.14 93.87 52.12 91.5 52.12 89.03C52.12 87.1 52.74 85.23 53.91 83.67C54.75 83.42 55.62 83.3 56.5 83.31C57.77 83.31 59.03 83.55 60.2 84.02C61.38 84.49 62.45 85.18 63.34 86.05C64.24 86.92 64.95 87.95 65.44 89.09C65.92 90.22 66.17 91.44 66.17 92.66Z" fill="#C4B5FD" fill-opacity="1.000000" fill-rule="nonzero"/>
		<path id="Vector" d="M34.67 78.72L7.27 78.72C6.7 78.72 6.15 78.5 5.74 78.11C5.34 77.72 5.11 77.19 5.11 76.64C5.11 76.09 5.34 75.56 5.74 75.17C6.15 74.78 6.7 74.56 7.27 74.56L34.67 74.56C35.24 74.56 35.79 74.78 36.2 75.17C36.6 75.56 36.83 76.09 36.83 76.64C36.83 77.19 36.6 77.72 36.2 78.11C35.79 78.5 35.24 78.72 34.67 78.72ZM56.5 69.25L18.27 69.25C17.7 69.25 17.15 69.03 16.75 68.64C16.34 68.25 16.11 67.72 16.11 67.17C16.11 66.62 16.34 66.09 16.75 65.69C17.15 65.3 17.7 65.08 18.27 65.08L56.5 65.08C57.08 65.08 57.63 65.3 58.03 65.69C58.43 66.09 58.66 66.62 58.66 67.17C58.66 67.72 58.43 68.25 58.03 68.64C57.63 69.03 57.08 69.25 56.5 69.25ZM17.08 58.25L2.15 58.25C1.58 58.25 1.03 58.03 0.63 57.64C0.22 57.25 0 56.72 0 56.17C0 55.62 0.22 55.09 0.63 54.7C1.03 54.31 1.58 54.09 2.15 54.09L17.08 54.09C17.66 54.09 18.2 54.31 18.61 54.7C19.01 55.09 19.24 55.62 19.24 56.17C19.24 56.72 19.01 57.25 18.61 57.64C18.2 58.03 17.66 58.25 17.08 58.25ZM41.02 46.75L14.67 46.75C14.1 46.75 13.55 46.53 13.14 46.14C12.74 45.75 12.51 45.22 12.51 44.67C12.51 44.12 12.74 43.59 13.14 43.2C13.55 42.81 14.1 42.59 14.67 42.59L41.02 42.59C41.59 42.59 42.14 42.81 42.55 43.2C42.95 43.59 43.18 44.12 43.18 44.67C43.18 45.22 42.95 45.75 42.55 46.14C42.14 46.53 41.59 46.75 41.02 46.75Z" fill="#A5B4FC" fill-opacity="1.000000" fill-rule="nonzero"/>
	</g>
</svg>
