<svg width="136.000000" height="136.000000" viewBox="0 0 136 136" fill="none" xmlns="http://www.w3.org/2000/svg" xmlns:xlink="http://www.w3.org/1999/xlink">
	<desc>
			Created with Pixso.
	</desc>
	<defs>
		<clipPath id="clip10_410">
			<rect id="Icon / clear info" width="136.000000" height="136.000000" fill="white" fill-opacity="0"/>
		</clipPath>
	</defs>
	<g clip-path="url(#clip10_410)">
		<path id="Vector" d="M87.71 110.1L87.71 119L48.28 119L48.28 110.1L57.68 110.1L59.34 95.05L59.73 91.46L59.73 91.39L76.23 91.39L76.25 91.46L76.64 95.05L78.3 110.1L87.71 110.1Z" fill="#8B5CF6" fill-opacity="1.000000" fill-rule="nonzero"/>
		<path id="Vector" d="M76.64 95.05L59.34 95.05L59.73 91.46L59.73 91.39L76.23 91.39L76.25 91.46L76.64 95.05Z" fill="#7C3AED" fill-opacity="1.000000" fill-rule="nonzero"/>
		<path id="Vector" d="M78.29 110.09L48.27 110.09L48.27 118.99L87.71 118.99L87.71 110.09L78.29 110.09Z" fill="#A78BFA" fill-opacity="1.000000" fill-rule="nonzero"/>
		<path id="Vector" d="M120.64 17L15.35 17C14.28 17 13.26 17.41 12.51 18.15C11.75 18.88 11.33 19.88 11.33 20.92L11.33 87.53C11.33 88.57 11.75 89.57 12.51 90.31C13.26 91.04 14.28 91.46 15.35 91.46L120.39 91.46C120.95 91.46 121.51 91.35 122.03 91.14C122.54 90.93 123.02 90.63 123.41 90.24C123.81 89.86 124.12 89.4 124.34 88.89C124.55 88.39 124.66 87.85 124.66 87.3L124.66 20.92C124.66 19.88 124.24 18.88 123.48 18.15C122.73 17.41 121.7 17 120.64 17Z" fill="#C4B5FD" fill-opacity="1.000000" fill-rule="nonzero"/>
		<path id="Vector" d="M18.81 23.8L117.18 23.8L117.18 77.98L18.81 77.98L18.81 23.8Z" fill="#4C1D95" fill-opacity="1.000000" fill-rule="nonzero"/>
		<path id="Vector" d="M117.18 23.8L117.18 73.05L40.89 73.05C37.03 73.04 33.32 71.55 30.59 68.89C27.85 66.23 26.32 62.62 26.32 58.85L26.32 23.8L117.18 23.8Z" fill="#6D28D9" fill-opacity="1.000000" fill-rule="nonzero"/>
		<path id="Vector" d="M102.31 61.91C102.34 61.84 102.38 61.77 102.43 61.7L102.43 61.68C103.12 60.54 103.67 59.33 104.09 58.07C105.22 54.55 105.2 50.77 104.02 47.26C102.85 43.75 100.59 40.68 97.55 38.48C94.51 36.27 90.84 35.05 87.05 34.96C83.26 34.88 79.54 35.95 76.4 38.01C74.23 39.43 72.41 41.29 71.06 43.47C69.82 45.47 68.98 47.68 68.62 49.99C68.25 52.3 68.35 54.66 68.92 56.93C69.49 59.2 70.51 61.34 71.93 63.23C73.35 65.11 75.13 66.71 77.18 67.92C80.1 69.58 83.41 70.47 86.78 70.51C88.69 70.52 90.59 70.21 92.39 69.58C93.67 69.13 94.91 68.57 96.09 67.92L96.12 67.94L101.36 73.05L113.71 73.05C108.4 67.9 102.31 61.94 102.31 61.91Z" fill="#4C1D95" fill-opacity="1.000000" fill-rule="nonzero"/>
		<path id="Vector" d="M122.54 84.61C122.35 85.35 121.95 86.02 121.39 86.56C120.57 87.35 119.46 87.79 118.31 87.79C117.15 87.79 116.05 87.35 115.23 86.56L106.43 77.99L117.18 77.99L117.18 76.44L121.39 80.55C121.94 81.07 122.33 81.71 122.53 82.43C122.73 83.14 122.73 83.89 122.54 84.61Z" fill="#DDD6FE" fill-opacity="1.000000" fill-rule="nonzero"/>
		<path id="Vector" d="M117.18 76.44L117.18 77.98L106.43 77.98L101.36 73.05L113.71 73.05C114.93 74.23 116.13 75.4 117.18 76.44Z" fill="#5B21B6" fill-opacity="1.000000" fill-rule="nonzero"/>
		<path id="Vector" d="M123.38 78.73L104.28 60.13C106.58 56.41 107.41 52 106.61 47.73C105.8 43.46 103.42 39.63 99.91 36.95C96.4 34.27 92 32.94 87.55 33.2C83.1 33.46 78.91 35.3 75.75 38.37C72.6 41.44 70.71 45.53 70.44 49.87C70.17 54.2 71.54 58.48 74.29 61.9C77.04 65.32 80.98 67.63 85.37 68.42C89.75 69.2 94.28 68.39 98.09 66.15L117.2 84.75C118.02 85.55 119.13 86 120.29 86C121.45 86 122.56 85.55 123.38 84.75C124.2 83.96 124.66 82.87 124.66 81.74C124.66 80.61 124.2 79.53 123.38 78.73Z" fill="#A78BFA" fill-opacity="1.000000" fill-rule="nonzero"/>
		<path id="Vector" d="M106.91 50.92C106.91 60.74 98.73 68.7 88.64 68.7C78.55 68.7 70.38 60.74 70.38 50.92C70.38 41.1 78.55 33.13 88.64 33.13C98.73 33.13 106.91 41.1 106.91 50.92Z" fill="#8B5CF6" fill-opacity="1.000000" fill-rule="evenodd"/>
		<path id="Vector" d="M123.38 78.73L104.26 60.11C103.5 61.34 102.58 62.47 101.55 63.49C101.05 63.97 100.52 64.43 99.96 64.86L118.2 82.61C119.02 83.41 120.13 83.86 121.29 83.86C122.45 83.86 123.56 83.41 124.38 82.61L124.61 82.38C124.71 81.72 124.65 81.04 124.44 80.41C124.22 79.78 123.86 79.2 123.38 78.73Z" fill="#C4B5FD" fill-opacity="1.000000" fill-rule="evenodd"/>
		<path id="Vector" d="M88.64 33.13C84.29 33.13 80.08 34.64 76.78 37.4C74.46 41.01 73.55 45.3 74.21 49.5C74.86 53.7 77.04 57.53 80.34 60.3C83.65 63.08 87.86 64.61 92.23 64.62C96.59 64.62 100.81 63.11 104.13 60.35C105.86 57.66 106.82 54.57 106.9 51.39C106.99 48.22 106.2 45.08 104.62 42.3C103.04 39.52 100.72 37.2 97.91 35.59C95.1 33.98 91.9 33.13 88.64 33.13Z" fill="#C4B5FD" fill-opacity="1.000000" fill-rule="nonzero"/>
	</g>
</svg>
