<svg width="305.000000" height="74.000000" viewBox="0 0 305 74" fill="none" xmlns="http://www.w3.org/2000/svg" xmlns:xlink="http://www.w3.org/1999/xlink">
	<desc>
			Created with Pixso.
	</desc>
	<defs/>
	<mask id="mask4_85" mask-type="alpha" maskUnits="userSpaceOnUse" x="0.000000" y="0.000000" width="50.000000" height="74.000000">
		<path id="Vector" d="M0 0L50 0L50 74L0 74L0 0Z" fill="#000000" fill-opacity="1.000000" fill-rule="evenodd"/>
	</mask>
	<g mask="url(#mask4_85)">
		<path id="Vector" d="M25.9 -5.73e-5C23.1 0 20.42 1.1 18.44 3.05C16.46 5.01 15.35 7.66 15.35 10.43L15.35 15.17L10.55 15.17C9.17 15.17 7.79 15.44 6.51 15.96C5.23 16.49 4.06 17.26 3.08 18.23C2.1 19.2 1.32 20.35 0.79 21.62C0.26 22.88 -0.01 24.24 -0.01 25.61L-0.01 36.04L15.35 36.04L15.35 45.53L10.55 45.53C7.75 45.52 5.06 46.62 3.08 48.58C1.1 50.54 -0.01 53.19 -0.01 55.96L-0.01 73.99L10.56 73.99C11.94 73.99 13.31 73.72 14.59 73.19C15.87 72.67 17.04 71.9 18.02 70.93C19 69.96 19.77 68.81 20.3 67.54C20.83 66.28 21.1 64.92 21.1 63.55L21.12 63.55L21.12 56.66L21.09 56.67L21.09 12.79L21.11 12.79L21.11 10.43C21.11 9.17 21.62 7.97 22.52 7.08C23.42 6.19 24.63 5.68 25.91 5.68L44.24 5.68L44.24 10.43C44.24 11.69 43.73 12.89 42.83 13.78C41.93 14.67 40.71 15.17 39.44 15.17L23.28 15.17L23.28 20.86L39.44 20.86C42.24 20.86 44.92 19.76 46.9 17.81C48.88 15.85 49.99 13.2 50 10.43L50 -0.01L25.9 -5.73e-5ZM15.35 30.35L5.75 30.35L5.75 25.61C5.76 24.35 6.26 23.15 7.16 22.25C8.06 21.36 9.28 20.86 10.56 20.86L15.35 20.86L15.35 30.35ZM15.35 63.56C15.35 64.81 14.84 66.02 13.94 66.91C13.04 67.8 11.82 68.3 10.55 68.3L5.75 68.3L5.75 55.96C5.75 54.71 6.26 53.5 7.16 52.61C8.06 51.72 9.28 51.22 10.55 51.22L15.35 51.22L15.35 63.56ZM23.28 36.04L35.39 36.04L35.39 40.79C35.39 42.05 34.88 43.25 33.98 44.14C33.08 45.03 31.86 45.53 30.59 45.53L23.28 45.53L23.28 51.22L30.59 51.22C31.98 51.22 33.35 50.95 34.63 50.43C35.91 49.91 37.08 49.14 38.06 48.17C39.04 47.2 39.82 46.05 40.35 44.78C40.88 43.52 41.15 42.16 41.15 40.79L41.15 40.79L41.15 30.35L23.28 30.35L23.28 36.04Z" fill="#A78BFA" fill-opacity="1.000000" fill-rule="nonzero"/>
	</g>
	<path id="FromBoard Delivery" d="M186.27 33.92Q185.3 33.2 183.81 33.2Q182.57 33.2 181.6 33.71Q180.71 34.16 180.04 35.03Q180.03 35.04 180.02 35.05Q178.63 36.87 178.63 39.75Q178.63 42.68 180.02 44.5Q180.62 45.28 181.42 45.73Q182.46 46.31 183.81 46.31Q185.46 46.31 186.49 45.51Q186.81 45.26 187.08 44.94L187.75 44.94L187.75 46L191.78 46L191.78 28.55L187.6 28.55L187.6 34.57L186.93 34.57Q186.64 34.19 186.27 33.92ZM239.2 28.55L235.03 28.55L235.03 46L239.2 46L239.2 28.55ZM246.69 28.55L242.52 28.55L242.52 32.03L246.69 32.03L246.69 28.55ZM67 35.72L60.31 35.72L60.31 32.79L68.95 32.79L68.95 28.86L55.84 28.86L55.84 46L60.31 46L60.31 39.56L67 39.56L67 35.72ZM133.03 37.5L133.03 36.83Q133.06 36.8 133.1 36.78Q133.79 36.35 134.24 35.52Q134.27 35.46 134.3 35.4Q134.71 34.57 134.71 33.54Q134.71 32.43 134.27 31.53Q133.9 30.78 133.23 30.18Q131.75 28.86 128.95 28.86L120.55 28.86L120.55 46L129.21 46Q132.19 46 133.68 44.62Q134.16 44.17 134.48 43.63Q135.16 42.5 135.16 40.96Q135.16 40.2 134.9 39.55Q134.75 39.19 134.53 38.86Q133.89 37.93 133.03 37.5ZM209.59 28.86L201.95 28.86L201.95 46L209.59 46Q212.74 46 214.68 44.46Q215.11 44.12 215.49 43.69Q215.6 43.57 215.7 43.45Q217.53 41.18 217.53 37.43Q217.53 33.68 215.7 31.41Q215.6 31.29 215.49 31.16Q215.11 30.73 214.66 30.38Q212.73 28.86 209.59 28.86ZM125.01 35.41L125.01 32.46L128.3 32.46Q129.4 32.46 129.83 33Q130.13 33.35 130.13 33.95Q130.13 34.54 129.83 34.89Q129.41 35.41 128.35 35.41L125.01 35.41ZM208.87 42.06L206.42 42.06L206.42 32.79L208.87 32.79Q210.68 32.79 211.66 33.7Q211.83 33.86 211.98 34.05Q212.97 35.31 212.97 37.43Q212.97 39.51 211.98 40.79Q211.83 40.99 211.64 41.17Q210.66 42.06 208.87 42.06ZM92.54 34.32Q90.91 33.2 88.51 33.2Q86.19 33.2 84.56 34.27Q84.09 34.58 83.67 34.98Q83.22 35.41 82.88 35.92Q81.84 37.49 81.84 39.75Q81.84 42.02 82.88 43.59Q83.22 44.1 83.67 44.53Q84.09 44.93 84.56 45.24Q86.19 46.31 88.51 46.31Q90.91 46.31 92.54 45.19Q92.97 44.9 93.34 44.53Q93.76 44.12 94.08 43.64Q95.15 42.06 95.15 39.75Q95.15 37.45 94.08 35.87Q93.76 35.39 93.34 34.98Q92.97 34.61 92.54 34.32ZM115.66 34.14Q114.56 33.2 112.67 33.2Q110.69 33.2 109.69 34.2Q109.51 34.38 109.36 34.59L108.69 34.59Q108.44 34.25 108.12 33.99Q107.15 33.2 105.55 33.2Q103.87 33.2 102.96 34.04Q102.7 34.28 102.5 34.59L101.83 34.59L101.83 33.51L97.8 33.51L97.8 46L101.97 46L101.97 39.4Q101.97 38.27 102.41 37.56Q102.57 37.31 102.8 37.14Q103.2 36.85 103.82 36.85Q104.45 36.85 104.82 37.16Q104.95 37.27 105.04 37.43Q105.4 38 105.4 39.13L105.4 46L109.58 46L109.58 39.2Q109.58 38.15 110.03 37.5Q110.17 37.3 110.36 37.16Q110.78 36.85 111.43 36.85Q112.07 36.85 112.43 37.17Q112.56 37.28 112.65 37.43Q113.01 38 113.01 39.13L113.01 46L117.19 46L117.19 38.27Q117.19 35.86 116.06 34.53Q115.87 34.32 115.66 34.14ZM148.1 34.32Q146.47 33.2 144.07 33.2Q141.75 33.2 140.12 34.27Q139.65 34.58 139.23 34.98Q138.78 35.41 138.44 35.92Q137.39 37.49 137.39 39.75Q137.39 42.02 138.44 43.59Q138.78 44.1 139.23 44.53Q139.65 44.93 140.12 45.24Q141.75 46.31 144.07 46.31Q146.47 46.31 148.1 45.19Q148.53 44.9 148.9 44.53Q149.32 44.12 149.64 43.64Q150.71 42.06 150.71 39.75Q150.71 37.45 149.64 35.87Q149.32 35.39 148.9 34.98Q148.53 34.61 148.1 34.32ZM163.7 34.94Q162.27 33.2 158.73 33.2Q156.33 33.2 154.78 34.32Q153.89 34.96 153.5 35.82Q153.21 36.47 153.19 37.24L157.31 37.24Q157.36 36.89 157.54 36.66Q157.94 36.16 158.97 36.16Q159.89 36.16 160.31 36.61Q160.68 37.01 160.68 37.74L160.68 37.96L157.79 37.96Q155.18 37.96 153.86 39.2Q153 40.01 152.7 40.99Q152.54 41.52 152.54 42.1Q152.54 42.99 152.85 43.75Q153.15 44.47 153.73 45.07Q154.04 45.4 154.41 45.64Q155.44 46.31 156.91 46.31Q158.7 46.31 159.78 45.43Q160 45.25 160.2 45.03L160.87 45.03L160.87 46L164.68 46L164.68 38.13Q164.68 36.13 163.7 34.94ZM232.29 41.96L228.07 41.96Q227.98 42.19 227.83 42.35Q227.34 42.9 226.24 42.9Q225.32 42.9 224.74 42.46Q223.9 41.83 223.74 40.31L232.39 40.31L232.39 39.34Q232.39 37.11 231.34 35.61Q231.06 35.21 230.71 34.86Q230.47 34.63 230.22 34.43Q228.62 33.2 226.08 33.2Q223.76 33.2 222.18 34.29Q221.75 34.58 221.37 34.96Q221.08 35.25 220.83 35.58Q219.62 37.22 219.62 39.75Q219.62 42.24 220.81 43.87Q221.07 44.23 221.4 44.55Q221.74 44.9 222.14 45.17Q223.76 46.31 226.17 46.31Q228.79 46.31 230.32 45.18Q230.77 44.86 231.12 44.45Q231.98 43.45 232.29 41.96ZM276.43 41.96L272.21 41.96Q272.11 42.19 271.96 42.35Q271.48 42.9 270.38 42.9Q269.46 42.9 268.87 42.46Q268.04 41.83 267.88 40.31L276.52 40.31L276.52 39.34Q276.52 37.11 275.47 35.61Q275.19 35.21 274.84 34.86Q274.61 34.63 274.35 34.43Q272.76 33.2 270.21 33.2Q267.89 33.2 266.31 34.29Q265.88 34.58 265.51 34.96Q265.21 35.25 264.97 35.58Q263.76 37.22 263.76 39.75Q263.76 42.24 264.94 43.87Q265.21 44.23 265.53 44.55Q265.88 44.9 266.27 45.17Q267.89 46.31 270.31 46.31Q272.93 46.31 274.46 45.18Q274.9 44.86 275.25 44.45Q276.12 43.45 276.43 41.96ZM80.27 37.38L80.27 33.51L78.95 33.51Q76.82 33.51 75.96 34.56Q75.85 34.7 75.76 34.86L75.09 34.86L75.09 33.51L71.06 33.51L71.06 46L75.23 46L75.23 40.98Q75.23 39.2 76.11 38.3Q76.99 37.38 78.95 37.38L80.27 37.38ZM177.06 37.38L177.06 33.51L175.75 33.51Q173.61 33.51 172.76 34.56Q172.64 34.7 172.55 34.86L171.88 34.86L171.88 33.51L167.85 33.51L167.85 46L172.03 46L172.03 40.98Q172.03 39.2 172.9 38.3Q173.78 37.38 175.75 37.38L177.06 37.38ZM246.69 33.51L242.52 33.51L242.52 46L246.69 46L246.69 33.51ZM248.8 33.51L252.02 46L259.03 46L262.32 33.51L258.12 33.51L256.15 42.44L255.09 42.44L253.01 33.51L248.8 33.51ZM288.38 37.38L288.38 33.51L287.06 33.51Q284.92 33.51 284.07 34.56Q283.96 34.7 283.86 34.86L283.2 34.86L283.2 33.51L279.17 33.51L279.17 46L283.34 46L283.34 40.98Q283.34 39.2 284.21 38.3Q285.09 37.38 287.06 37.38L288.38 37.38ZM304.32 33.51L300.19 33.51L297.67 39.56L296.99 39.56L294.19 33.51L290.01 33.51L295.24 44.63L292.63 50.79L296.76 50.79L304.32 33.51ZM224.71 36.58Q225.25 36.18 226.08 36.18Q226.96 36.18 227.47 36.61Q227.95 37.02 228.12 37.81L223.91 37.81Q224.16 36.98 224.71 36.58ZM268.85 36.58Q269.38 36.18 270.21 36.18Q271.09 36.18 271.61 36.61Q272.09 37.02 272.25 37.81L268.05 37.81Q268.29 36.98 268.85 36.58ZM89.86 42.53Q89.31 42.9 88.51 42.9Q87.67 42.9 87.11 42.5Q86.84 42.31 86.63 42.03Q86.01 41.15 86.01 39.75Q86.01 38.36 86.63 37.49Q86.84 37.2 87.12 37Q87.67 36.61 88.51 36.61Q89.31 36.61 89.85 36.98Q90.14 37.18 90.35 37.49Q90.98 38.36 90.98 39.75Q90.98 41.15 90.35 42.03Q90.14 42.33 89.86 42.53ZM145.42 42.53Q144.87 42.9 144.07 42.9Q143.23 42.9 142.67 42.5Q142.4 42.31 142.19 42.03Q141.57 41.15 141.57 39.75Q141.57 38.36 142.19 37.49Q142.4 37.2 142.68 37Q143.23 36.61 144.07 36.61Q144.87 36.61 145.41 36.98Q145.7 37.18 145.92 37.49Q146.54 38.36 146.54 39.75Q146.54 41.15 145.92 42.03Q145.7 42.33 145.42 42.53ZM183.86 42.5Q183.6 42.31 183.4 42.02Q182.81 41.13 182.81 39.76Q182.81 38.39 183.4 37.5Q183.6 37.2 183.87 37Q184.42 36.61 185.25 36.61Q186.06 36.61 186.62 36.99Q186.91 37.19 187.14 37.5Q187.77 38.39 187.77 39.76Q187.77 41.13 187.14 42.02Q186.92 42.32 186.63 42.52Q186.07 42.9 185.25 42.9Q184.41 42.9 183.86 42.5ZM128.49 42.32L125.01 42.32L125.01 39.01L128.56 39.01Q129.74 39.01 130.23 39.59Q130.58 40.01 130.58 40.72Q130.58 41.27 130.31 41.63Q130.18 41.81 129.98 41.94Q129.38 42.32 128.49 42.32ZM160.68 40.33L160.68 41.07Q160.68 41.7 160.41 42.18Q160.28 42.42 160.08 42.63Q159.95 42.76 159.8 42.87Q159.27 43.24 158.49 43.24Q157.43 43.24 157.01 42.72Q156.72 42.36 156.72 41.77Q156.72 41.36 156.9 41.06Q157.03 40.85 157.24 40.7Q157.77 40.33 158.66 40.33L160.68 40.33Z" fill="#111827" fill-opacity="1.000000" fill-rule="evenodd"/>
</svg>
