<svg width="62.000000" height="44.000000" viewBox="0 0 62 44" fill="none" xmlns="http://www.w3.org/2000/svg" xmlns:xlink="http://www.w3.org/1999/xlink">
	<desc>
			Created with Pixso.
	</desc>
	<defs/>
	<path id="“" d="M26.53 16.58C26.53 21.23 25.83 25.22 24.42 28.55C23.01 32 21.19 34.8 18.96 36.94C16.73 39.2 14.21 40.81 11.39 41.76C8.46 42.83 5.58 43.37 2.77 43.37L2.77 37.12C5.82 37.12 8.69 36.05 11.39 33.91C13.98 31.88 15.5 29.08 15.97 25.51C15.62 25.63 15.21 25.75 14.74 25.87C14.39 25.99 13.98 26.11 13.51 26.23C12.92 26.35 12.27 26.41 11.57 26.41C8.05 26.41 5.11 25.04 2.77 22.3C0.42 19.68 -0.75 16.58 -0.75 13.01C-0.75 9.44 0.48 6.29 2.94 3.55C5.29 0.93 8.46 -0.38 12.45 -0.38C16.91 -0.38 20.37 1.29 22.84 4.62C25.3 8.07 26.53 12.06 26.53 16.58ZM61.75 16.58C61.75 21.23 61.04 25.22 59.63 28.55C58.22 32 56.4 34.8 54.17 36.94C51.94 39.2 49.42 40.81 46.6 41.76C43.67 42.83 40.79 43.37 37.98 43.37L37.98 37.12C41.03 37.12 43.9 36.05 46.6 33.91C49.19 31.88 50.71 29.08 51.18 25.51C50.83 25.63 50.42 25.75 49.95 25.87C49.6 25.99 49.19 26.11 48.72 26.23C48.13 26.35 47.48 26.41 46.78 26.41C43.26 26.41 40.32 25.04 37.98 22.3C35.63 19.68 34.46 16.58 34.46 13.01C34.46 9.44 35.69 6.29 38.15 3.55C40.5 0.93 43.67 -0.38 47.66 -0.38C52.12 -0.38 55.58 1.29 58.05 4.62C60.51 8.07 61.75 12.06 61.75 16.58Z" fill="#EDE9FE" fill-opacity="1.000000" fill-rule="evenodd"/>
</svg>
